<?xml version="1.0" encoding="utf-8" standalone="no"?>
<!DOCTYPE svg PUBLIC "-//W3C//DTD SVG 1.1//EN"
  "http://www.w3.org/Graphics/SVG/1.1/DTD/svg11.dtd">
<svg xmlns:xlink="http://www.w3.org/1999/xlink" width="490.52775pt" height="338.157375pt" viewBox="0 0 490.52775 338.157375" xmlns="http://www.w3.org/2000/svg" version="1.1">
 <metadata>
  <rdf:RDF xmlns:dc="http://purl.org/dc/elements/1.1/" xmlns:cc="http://creativecommons.org/ns#" xmlns:rdf="http://www.w3.org/1999/02/22-rdf-syntax-ns#">
   <cc:Work>
    <dc:type rdf:resource="http://purl.org/dc/dcmitype/StillImage"/>
    <dc:date>2025-09-30T15:44:38.671102</dc:date>
    <dc:format>image/svg+xml</dc:format>
    <dc:creator>
     <cc:Agent>
      <dc:title>Matplotlib v3.10.6, https://matplotlib.org/</dc:title>
     </cc:Agent>
    </dc:creator>
   </cc:Work>
  </rdf:RDF>
 </metadata>
 <defs>
  <style type="text/css">*{stroke-linejoin: round; stroke-linecap: butt}</style>
 </defs>
 <g id="figure_1">
  <g id="patch_1">
   <path d="M 0 338.157375 
L 490.52775 338.157375 
L 490.52775 0 
L 0 0 
z
" style="fill: #ffffff"/>
  </g>
  <g id="axes_1">
   <g id="patch_2">
    <path d="M 55.037 310.020875 
L 483.32775 310.020875 
L 483.32775 12.670875 
L 55.037 12.670875 
z
" style="fill: #ffffff"/>
   </g>
   <g id="patch_3">
    <path d="M 74.504761 310.020875 
L 154.666135 310.020875 
L 154.666135 113.723414 
L 74.504761 113.723414 
z
" clip-path="url(#p2182c0a51a)" style="fill: #7f3517; stroke: #000000; stroke-linejoin: miter"/>
   </g>
   <g id="patch_4">
    <path d="M 303.537255 310.020875 
L 383.698635 310.020875 
L 383.698635 182.253297 
L 303.537255 182.253297 
z
" clip-path="url(#p2182c0a51a)" style="fill: #7f3517; stroke: #000000; stroke-linejoin: miter"/>
   </g>
   <g id="patch_5">
    <path d="M 154.666139 310.020875 
L 234.827502 310.020875 
L 234.827502 222.906617 
L 154.666139 222.906617 
z
" clip-path="url(#p2182c0a51a)" style="fill: #7f3517; stroke: #000000; stroke-linejoin: miter"/>
   </g>
   <g id="patch_6">
    <path d="M 383.698635 310.020875 
L 463.859989 310.020875 
L 463.859989 167.153492 
L 383.698635 167.153492 
z
" clip-path="url(#p2182c0a51a)" style="fill: #7f3517; stroke: #000000; stroke-linejoin: miter"/>
   </g>
   <g id="matplotlib.axis_1">
    <g id="xtick_1">
     <g id="line2d_1">
      <defs>
       <path id="m8048ca7fb6" d="M 0 0 
L 0 3.5 
" style="stroke: #000000; stroke-width: 0.8"/>
      </defs>
      <g>
       <use xlink:href="#m8048ca7fb6" x="154.666135" y="310.020875" style="stroke: #000000; stroke-width: 0.8"/>
      </g>
     </g>
     <g id="text_1">
      <!-- Adaptive (19, 3) -->
      <g transform="translate(96.57226 327.962625) scale(0.144 -0.144)">
       <defs>
        <path id="DejaVuSans-41" d="M 2188 4044 
L 1331 1722 
L 3047 1722 
L 2188 4044 
z
M 1831 4666 
L 2547 4666 
L 4325 0 
L 3669 0 
L 3244 1197 
L 1141 1197 
L 716 0 
L 50 0 
L 1831 4666 
z
" transform="scale(0.015625)"/>
        <path id="DejaVuSans-64" d="M 2906 2969 
L 2906 4863 
L 3481 4863 
L 3481 0 
L 2906 0 
L 2906 525 
Q 2725 213 2448 61 
Q 2172 -91 1784 -91 
Q 1150 -91 751 415 
Q 353 922 353 1747 
Q 353 2572 751 3078 
Q 1150 3584 1784 3584 
Q 2172 3584 2448 3432 
Q 2725 3281 2906 2969 
z
M 947 1747 
Q 947 1113 1208 752 
Q 1469 391 1925 391 
Q 2381 391 2643 752 
Q 2906 1113 2906 1747 
Q 2906 2381 2643 2742 
Q 2381 3103 1925 3103 
Q 1469 3103 1208 2742 
Q 947 2381 947 1747 
z
" transform="scale(0.015625)"/>
        <path id="DejaVuSans-61" d="M 2194 1759 
Q 1497 1759 1228 1600 
Q 959 1441 959 1056 
Q 959 750 1161 570 
Q 1363 391 1709 391 
Q 2188 391 2477 730 
Q 2766 1069 2766 1631 
L 2766 1759 
L 2194 1759 
z
M 3341 1997 
L 3341 0 
L 2766 0 
L 2766 531 
Q 2569 213 2275 61 
Q 1981 -91 1556 -91 
Q 1019 -91 701 211 
Q 384 513 384 1019 
Q 384 1609 779 1909 
Q 1175 2209 1959 2209 
L 2766 2209 
L 2766 2266 
Q 2766 2663 2505 2880 
Q 2244 3097 1772 3097 
Q 1472 3097 1187 3025 
Q 903 2953 641 2809 
L 641 3341 
Q 956 3463 1253 3523 
Q 1550 3584 1831 3584 
Q 2591 3584 2966 3190 
Q 3341 2797 3341 1997 
z
" transform="scale(0.015625)"/>
        <path id="DejaVuSans-70" d="M 1159 525 
L 1159 -1331 
L 581 -1331 
L 581 3500 
L 1159 3500 
L 1159 2969 
Q 1341 3281 1617 3432 
Q 1894 3584 2278 3584 
Q 2916 3584 3314 3078 
Q 3713 2572 3713 1747 
Q 3713 922 3314 415 
Q 2916 -91 2278 -91 
Q 1894 -91 1617 61 
Q 1341 213 1159 525 
z
M 3116 1747 
Q 3116 2381 2855 2742 
Q 2594 3103 2138 3103 
Q 1681 3103 1420 2742 
Q 1159 2381 1159 1747 
Q 1159 1113 1420 752 
Q 1681 391 2138 391 
Q 2594 391 2855 752 
Q 3116 1113 3116 1747 
z
" transform="scale(0.015625)"/>
        <path id="DejaVuSans-74" d="M 1172 4494 
L 1172 3500 
L 2356 3500 
L 2356 3053 
L 1172 3053 
L 1172 1153 
Q 1172 725 1289 603 
Q 1406 481 1766 481 
L 2356 481 
L 2356 0 
L 1766 0 
Q 1100 0 847 248 
Q 594 497 594 1153 
L 594 3053 
L 172 3053 
L 172 3500 
L 594 3500 
L 594 4494 
L 1172 4494 
z
" transform="scale(0.015625)"/>
        <path id="DejaVuSans-69" d="M 603 3500 
L 1178 3500 
L 1178 0 
L 603 0 
L 603 3500 
z
M 603 4863 
L 1178 4863 
L 1178 4134 
L 603 4134 
L 603 4863 
z
" transform="scale(0.015625)"/>
        <path id="DejaVuSans-76" d="M 191 3500 
L 800 3500 
L 1894 563 
L 2988 3500 
L 3597 3500 
L 2284 0 
L 1503 0 
L 191 3500 
z
" transform="scale(0.015625)"/>
        <path id="DejaVuSans-65" d="M 3597 1894 
L 3597 1613 
L 953 1613 
Q 991 1019 1311 708 
Q 1631 397 2203 397 
Q 2534 397 2845 478 
Q 3156 559 3463 722 
L 3463 178 
Q 3153 47 2828 -22 
Q 2503 -91 2169 -91 
Q 1331 -91 842 396 
Q 353 884 353 1716 
Q 353 2575 817 3079 
Q 1281 3584 2069 3584 
Q 2775 3584 3186 3129 
Q 3597 2675 3597 1894 
z
M 3022 2063 
Q 3016 2534 2758 2815 
Q 2500 3097 2075 3097 
Q 1594 3097 1305 2825 
Q 1016 2553 972 2059 
L 3022 2063 
z
" transform="scale(0.015625)"/>
        <path id="DejaVuSans-20" transform="scale(0.015625)"/>
        <path id="DejaVuSans-28" d="M 1984 4856 
Q 1566 4138 1362 3434 
Q 1159 2731 1159 2009 
Q 1159 1288 1364 580 
Q 1569 -128 1984 -844 
L 1484 -844 
Q 1016 -109 783 600 
Q 550 1309 550 2009 
Q 550 2706 781 3412 
Q 1013 4119 1484 4856 
L 1984 4856 
z
" transform="scale(0.015625)"/>
        <path id="DejaVuSans-31" d="M 794 531 
L 1825 531 
L 1825 4091 
L 703 3866 
L 703 4441 
L 1819 4666 
L 2450 4666 
L 2450 531 
L 3481 531 
L 3481 0 
L 794 0 
L 794 531 
z
" transform="scale(0.015625)"/>
        <path id="DejaVuSans-39" d="M 703 97 
L 703 672 
Q 941 559 1184 500 
Q 1428 441 1663 441 
Q 2288 441 2617 861 
Q 2947 1281 2994 2138 
Q 2813 1869 2534 1725 
Q 2256 1581 1919 1581 
Q 1219 1581 811 2004 
Q 403 2428 403 3163 
Q 403 3881 828 4315 
Q 1253 4750 1959 4750 
Q 2769 4750 3195 4129 
Q 3622 3509 3622 2328 
Q 3622 1225 3098 567 
Q 2575 -91 1691 -91 
Q 1453 -91 1209 -44 
Q 966 3 703 97 
z
M 1959 2075 
Q 2384 2075 2632 2365 
Q 2881 2656 2881 3163 
Q 2881 3666 2632 3958 
Q 2384 4250 1959 4250 
Q 1534 4250 1286 3958 
Q 1038 3666 1038 3163 
Q 1038 2656 1286 2365 
Q 1534 2075 1959 2075 
z
" transform="scale(0.015625)"/>
        <path id="DejaVuSans-2c" d="M 750 794 
L 1409 794 
L 1409 256 
L 897 -744 
L 494 -744 
L 750 256 
L 750 794 
z
" transform="scale(0.015625)"/>
        <path id="DejaVuSans-33" d="M 2597 2516 
Q 3050 2419 3304 2112 
Q 3559 1806 3559 1356 
Q 3559 666 3084 287 
Q 2609 -91 1734 -91 
Q 1441 -91 1130 -33 
Q 819 25 488 141 
L 488 750 
Q 750 597 1062 519 
Q 1375 441 1716 441 
Q 2309 441 2620 675 
Q 2931 909 2931 1356 
Q 2931 1769 2642 2001 
Q 2353 2234 1838 2234 
L 1294 2234 
L 1294 2753 
L 1863 2753 
Q 2328 2753 2575 2939 
Q 2822 3125 2822 3475 
Q 2822 3834 2567 4026 
Q 2313 4219 1838 4219 
Q 1578 4219 1281 4162 
Q 984 4106 628 3988 
L 628 4550 
Q 988 4650 1302 4700 
Q 1616 4750 1894 4750 
Q 2613 4750 3031 4423 
Q 3450 4097 3450 3541 
Q 3450 3153 3228 2886 
Q 3006 2619 2597 2516 
z
" transform="scale(0.015625)"/>
        <path id="DejaVuSans-29" d="M 513 4856 
L 1013 4856 
Q 1481 4119 1714 3412 
Q 1947 2706 1947 2009 
Q 1947 1309 1714 600 
Q 1481 -109 1013 -844 
L 513 -844 
Q 928 -128 1133 580 
Q 1338 1288 1338 2009 
Q 1338 2731 1133 3434 
Q 928 4138 513 4856 
z
" transform="scale(0.015625)"/>
       </defs>
       <use xlink:href="#DejaVuSans-41"/>
       <use xlink:href="#DejaVuSans-64" transform="translate(66.658203 0)"/>
       <use xlink:href="#DejaVuSans-61" transform="translate(130.134766 0)"/>
       <use xlink:href="#DejaVuSans-70" transform="translate(191.414062 0)"/>
       <use xlink:href="#DejaVuSans-74" transform="translate(254.890625 0)"/>
       <use xlink:href="#DejaVuSans-69" transform="translate(294.099609 0)"/>
       <use xlink:href="#DejaVuSans-76" transform="translate(321.882812 0)"/>
       <use xlink:href="#DejaVuSans-65" transform="translate(381.0625 0)"/>
       <use xlink:href="#DejaVuSans-20" transform="translate(442.585938 0)"/>
       <use xlink:href="#DejaVuSans-28" transform="translate(474.373047 0)"/>
       <use xlink:href="#DejaVuSans-31" transform="translate(513.386719 0)"/>
       <use xlink:href="#DejaVuSans-39" transform="translate(577.009766 0)"/>
       <use xlink:href="#DejaVuSans-2c" transform="translate(640.632812 0)"/>
       <use xlink:href="#DejaVuSans-20" transform="translate(672.419922 0)"/>
       <use xlink:href="#DejaVuSans-33" transform="translate(704.207031 0)"/>
       <use xlink:href="#DejaVuSans-29" transform="translate(767.830078 0)"/>
      </g>
     </g>
    </g>
    <g id="xtick_2">
     <g id="line2d_2">
      <g>
       <use xlink:href="#m8048ca7fb6" x="383.698635" y="310.020875" style="stroke: #000000; stroke-width: 0.8"/>
      </g>
     </g>
     <g id="text_2">
      <!-- Static (2, 3) -->
      <g transform="translate(341.466135 327.962625) scale(0.144 -0.144)">
       <defs>
        <path id="DejaVuSans-53" d="M 3425 4513 
L 3425 3897 
Q 3066 4069 2747 4153 
Q 2428 4238 2131 4238 
Q 1616 4238 1336 4038 
Q 1056 3838 1056 3469 
Q 1056 3159 1242 3001 
Q 1428 2844 1947 2747 
L 2328 2669 
Q 3034 2534 3370 2195 
Q 3706 1856 3706 1288 
Q 3706 609 3251 259 
Q 2797 -91 1919 -91 
Q 1588 -91 1214 -16 
Q 841 59 441 206 
L 441 856 
Q 825 641 1194 531 
Q 1563 422 1919 422 
Q 2459 422 2753 634 
Q 3047 847 3047 1241 
Q 3047 1584 2836 1778 
Q 2625 1972 2144 2069 
L 1759 2144 
Q 1053 2284 737 2584 
Q 422 2884 422 3419 
Q 422 4038 858 4394 
Q 1294 4750 2059 4750 
Q 2388 4750 2728 4690 
Q 3069 4631 3425 4513 
z
" transform="scale(0.015625)"/>
        <path id="DejaVuSans-63" d="M 3122 3366 
L 3122 2828 
Q 2878 2963 2633 3030 
Q 2388 3097 2138 3097 
Q 1578 3097 1268 2742 
Q 959 2388 959 1747 
Q 959 1106 1268 751 
Q 1578 397 2138 397 
Q 2388 397 2633 464 
Q 2878 531 3122 666 
L 3122 134 
Q 2881 22 2623 -34 
Q 2366 -91 2075 -91 
Q 1284 -91 818 406 
Q 353 903 353 1747 
Q 353 2603 823 3093 
Q 1294 3584 2113 3584 
Q 2378 3584 2631 3529 
Q 2884 3475 3122 3366 
z
" transform="scale(0.015625)"/>
        <path id="DejaVuSans-32" d="M 1228 531 
L 3431 531 
L 3431 0 
L 469 0 
L 469 531 
Q 828 903 1448 1529 
Q 2069 2156 2228 2338 
Q 2531 2678 2651 2914 
Q 2772 3150 2772 3378 
Q 2772 3750 2511 3984 
Q 2250 4219 1831 4219 
Q 1534 4219 1204 4116 
Q 875 4013 500 3803 
L 500 4441 
Q 881 4594 1212 4672 
Q 1544 4750 1819 4750 
Q 2544 4750 2975 4387 
Q 3406 4025 3406 3419 
Q 3406 3131 3298 2873 
Q 3191 2616 2906 2266 
Q 2828 2175 2409 1742 
Q 1991 1309 1228 531 
z
" transform="scale(0.015625)"/>
       </defs>
       <use xlink:href="#DejaVuSans-53"/>
       <use xlink:href="#DejaVuSans-74" transform="translate(63.476562 0)"/>
       <use xlink:href="#DejaVuSans-61" transform="translate(102.685547 0)"/>
       <use xlink:href="#DejaVuSans-74" transform="translate(163.964844 0)"/>
       <use xlink:href="#DejaVuSans-69" transform="translate(203.173828 0)"/>
       <use xlink:href="#DejaVuSans-63" transform="translate(230.957031 0)"/>
       <use xlink:href="#DejaVuSans-20" transform="translate(285.9375 0)"/>
       <use xlink:href="#DejaVuSans-28" transform="translate(317.724609 0)"/>
       <use xlink:href="#DejaVuSans-32" transform="translate(356.738281 0)"/>
       <use xlink:href="#DejaVuSans-2c" transform="translate(420.361328 0)"/>
       <use xlink:href="#DejaVuSans-20" transform="translate(452.148438 0)"/>
       <use xlink:href="#DejaVuSans-33" transform="translate(483.935547 0)"/>
       <use xlink:href="#DejaVuSans-29" transform="translate(547.558594 0)"/>
      </g>
     </g>
    </g>
   </g>
   <g id="matplotlib.axis_2">
    <g id="ytick_1">
     <g id="line2d_3">
      <defs>
       <path id="m7e829e31b1" d="M 0 0 
L -3.5 0 
" style="stroke: #000000; stroke-width: 0.8"/>
      </defs>
      <g>
       <use xlink:href="#m7e829e31b1" x="55.037" y="310.020875" style="stroke: #000000; stroke-width: 0.8"/>
      </g>
     </g>
     <g id="text_3">
      <!-- 0.0 -->
      <g transform="translate(25.1365 315.49175) scale(0.144 -0.144)">
       <defs>
        <path id="DejaVuSans-30" d="M 2034 4250 
Q 1547 4250 1301 3770 
Q 1056 3291 1056 2328 
Q 1056 1369 1301 889 
Q 1547 409 2034 409 
Q 2525 409 2770 889 
Q 3016 1369 3016 2328 
Q 3016 3291 2770 3770 
Q 2525 4250 2034 4250 
z
M 2034 4750 
Q 2819 4750 3233 4129 
Q 3647 3509 3647 2328 
Q 3647 1150 3233 529 
Q 2819 -91 2034 -91 
Q 1250 -91 836 529 
Q 422 1150 422 2328 
Q 422 3509 836 4129 
Q 1250 4750 2034 4750 
z
" transform="scale(0.015625)"/>
        <path id="DejaVuSans-2e" d="M 684 794 
L 1344 794 
L 1344 0 
L 684 0 
L 684 794 
z
" transform="scale(0.015625)"/>
       </defs>
       <use xlink:href="#DejaVuSans-30"/>
       <use xlink:href="#DejaVuSans-2e" transform="translate(63.623047 0)"/>
       <use xlink:href="#DejaVuSans-30" transform="translate(95.410156 0)"/>
      </g>
     </g>
    </g>
    <g id="ytick_2">
     <g id="line2d_4">
      <g>
       <use xlink:href="#m7e829e31b1" x="55.037" y="250.550875" style="stroke: #000000; stroke-width: 0.8"/>
      </g>
     </g>
     <g id="text_4">
      <!-- 0.2 -->
      <g transform="translate(25.1365 256.02175) scale(0.144 -0.144)">
       <use xlink:href="#DejaVuSans-30"/>
       <use xlink:href="#DejaVuSans-2e" transform="translate(63.623047 0)"/>
       <use xlink:href="#DejaVuSans-32" transform="translate(95.410156 0)"/>
      </g>
     </g>
    </g>
    <g id="ytick_3">
     <g id="line2d_5">
      <g>
       <use xlink:href="#m7e829e31b1" x="55.037" y="191.080875" style="stroke: #000000; stroke-width: 0.8"/>
      </g>
     </g>
     <g id="text_5">
      <!-- 0.4 -->
      <g transform="translate(25.1365 196.55175) scale(0.144 -0.144)">
       <defs>
        <path id="DejaVuSans-34" d="M 2419 4116 
L 825 1625 
L 2419 1625 
L 2419 4116 
z
M 2253 4666 
L 3047 4666 
L 3047 1625 
L 3713 1625 
L 3713 1100 
L 3047 1100 
L 3047 0 
L 2419 0 
L 2419 1100 
L 313 1100 
L 313 1709 
L 2253 4666 
z
" transform="scale(0.015625)"/>
       </defs>
       <use xlink:href="#DejaVuSans-30"/>
       <use xlink:href="#DejaVuSans-2e" transform="translate(63.623047 0)"/>
       <use xlink:href="#DejaVuSans-34" transform="translate(95.410156 0)"/>
      </g>
     </g>
    </g>
    <g id="ytick_4">
     <g id="line2d_6">
      <g>
       <use xlink:href="#m7e829e31b1" x="55.037" y="131.610875" style="stroke: #000000; stroke-width: 0.8"/>
      </g>
     </g>
     <g id="text_6">
      <!-- 0.6 -->
      <g transform="translate(25.1365 137.08175) scale(0.144 -0.144)">
       <defs>
        <path id="DejaVuSans-36" d="M 2113 2584 
Q 1688 2584 1439 2293 
Q 1191 2003 1191 1497 
Q 1191 994 1439 701 
Q 1688 409 2113 409 
Q 2538 409 2786 701 
Q 3034 994 3034 1497 
Q 3034 2003 2786 2293 
Q 2538 2584 2113 2584 
z
M 3366 4563 
L 3366 3988 
Q 3128 4100 2886 4159 
Q 2644 4219 2406 4219 
Q 1781 4219 1451 3797 
Q 1122 3375 1075 2522 
Q 1259 2794 1537 2939 
Q 1816 3084 2150 3084 
Q 2853 3084 3261 2657 
Q 3669 2231 3669 1497 
Q 3669 778 3244 343 
Q 2819 -91 2113 -91 
Q 1303 -91 875 529 
Q 447 1150 447 2328 
Q 447 3434 972 4092 
Q 1497 4750 2381 4750 
Q 2619 4750 2861 4703 
Q 3103 4656 3366 4563 
z
" transform="scale(0.015625)"/>
       </defs>
       <use xlink:href="#DejaVuSans-30"/>
       <use xlink:href="#DejaVuSans-2e" transform="translate(63.623047 0)"/>
       <use xlink:href="#DejaVuSans-36" transform="translate(95.410156 0)"/>
      </g>
     </g>
    </g>
    <g id="ytick_5">
     <g id="line2d_7">
      <g>
       <use xlink:href="#m7e829e31b1" x="55.037" y="72.140875" style="stroke: #000000; stroke-width: 0.8"/>
      </g>
     </g>
     <g id="text_7">
      <!-- 0.8 -->
      <g transform="translate(25.1365 77.61175) scale(0.144 -0.144)">
       <defs>
        <path id="DejaVuSans-38" d="M 2034 2216 
Q 1584 2216 1326 1975 
Q 1069 1734 1069 1313 
Q 1069 891 1326 650 
Q 1584 409 2034 409 
Q 2484 409 2743 651 
Q 3003 894 3003 1313 
Q 3003 1734 2745 1975 
Q 2488 2216 2034 2216 
z
M 1403 2484 
Q 997 2584 770 2862 
Q 544 3141 544 3541 
Q 544 4100 942 4425 
Q 1341 4750 2034 4750 
Q 2731 4750 3128 4425 
Q 3525 4100 3525 3541 
Q 3525 3141 3298 2862 
Q 3072 2584 2669 2484 
Q 3125 2378 3379 2068 
Q 3634 1759 3634 1313 
Q 3634 634 3220 271 
Q 2806 -91 2034 -91 
Q 1263 -91 848 271 
Q 434 634 434 1313 
Q 434 1759 690 2068 
Q 947 2378 1403 2484 
z
M 1172 3481 
Q 1172 3119 1398 2916 
Q 1625 2713 2034 2713 
Q 2441 2713 2670 2916 
Q 2900 3119 2900 3481 
Q 2900 3844 2670 4047 
Q 2441 4250 2034 4250 
Q 1625 4250 1398 4047 
Q 1172 3844 1172 3481 
z
" transform="scale(0.015625)"/>
       </defs>
       <use xlink:href="#DejaVuSans-30"/>
       <use xlink:href="#DejaVuSans-2e" transform="translate(63.623047 0)"/>
       <use xlink:href="#DejaVuSans-38" transform="translate(95.410156 0)"/>
      </g>
     </g>
    </g>
    <g id="ytick_6">
     <g id="line2d_8">
      <g>
       <use xlink:href="#m7e829e31b1" x="55.037" y="12.670875" style="stroke: #000000; stroke-width: 0.8"/>
      </g>
     </g>
     <g id="text_8">
      <!-- 1.0 -->
      <g transform="translate(25.1365 18.14175) scale(0.144 -0.144)">
       <use xlink:href="#DejaVuSans-31"/>
       <use xlink:href="#DejaVuSans-2e" transform="translate(63.623047 0)"/>
       <use xlink:href="#DejaVuSans-30" transform="translate(95.410156 0)"/>
      </g>
     </g>
    </g>
    <g id="text_9">
     <!-- Attention -->
     <g transform="translate(18.14175 194.575) rotate(-90) scale(0.144 -0.144)">
      <defs>
       <path id="DejaVuSans-6e" d="M 3513 2113 
L 3513 0 
L 2938 0 
L 2938 2094 
Q 2938 2591 2744 2837 
Q 2550 3084 2163 3084 
Q 1697 3084 1428 2787 
Q 1159 2491 1159 1978 
L 1159 0 
L 581 0 
L 581 3500 
L 1159 3500 
L 1159 2956 
Q 1366 3272 1645 3428 
Q 1925 3584 2291 3584 
Q 2894 3584 3203 3211 
Q 3513 2838 3513 2113 
z
" transform="scale(0.015625)"/>
       <path id="DejaVuSans-6f" d="M 1959 3097 
Q 1497 3097 1228 2736 
Q 959 2375 959 1747 
Q 959 1119 1226 758 
Q 1494 397 1959 397 
Q 2419 397 2687 759 
Q 2956 1122 2956 1747 
Q 2956 2369 2687 2733 
Q 2419 3097 1959 3097 
z
M 1959 3584 
Q 2709 3584 3137 3096 
Q 3566 2609 3566 1747 
Q 3566 888 3137 398 
Q 2709 -91 1959 -91 
Q 1206 -91 779 398 
Q 353 888 353 1747 
Q 353 2609 779 3096 
Q 1206 3584 1959 3584 
z
" transform="scale(0.015625)"/>
      </defs>
      <use xlink:href="#DejaVuSans-41"/>
      <use xlink:href="#DejaVuSans-74" transform="translate(66.658203 0)"/>
      <use xlink:href="#DejaVuSans-74" transform="translate(105.867188 0)"/>
      <use xlink:href="#DejaVuSans-65" transform="translate(145.076172 0)"/>
      <use xlink:href="#DejaVuSans-6e" transform="translate(206.599609 0)"/>
      <use xlink:href="#DejaVuSans-74" transform="translate(269.978516 0)"/>
      <use xlink:href="#DejaVuSans-69" transform="translate(309.1875 0)"/>
      <use xlink:href="#DejaVuSans-6f" transform="translate(336.970703 0)"/>
      <use xlink:href="#DejaVuSans-6e" transform="translate(398.152344 0)"/>
     </g>
    </g>
   </g>
   <g id="patch_7">
    <path d="M 55.037 310.020875 
L 55.037 12.670875 
" style="fill: none; stroke: #000000; stroke-width: 0.8; stroke-linejoin: miter; stroke-linecap: square"/>
   </g>
   <g id="patch_8">
    <path d="M 55.037 310.020875 
L 483.32775 310.020875 
" style="fill: none; stroke: #000000; stroke-width: 0.8; stroke-linejoin: miter; stroke-linecap: square"/>
   </g>
   <g id="text_10">
    <!-- Antonio -->
    <g transform="translate(86.900323 109.228664) scale(0.144 -0.144)">
     <use xlink:href="#DejaVuSans-41"/>
     <use xlink:href="#DejaVuSans-6e" transform="translate(68.408203 0)"/>
     <use xlink:href="#DejaVuSans-74" transform="translate(131.787109 0)"/>
     <use xlink:href="#DejaVuSans-6f" transform="translate(170.996094 0)"/>
     <use xlink:href="#DejaVuSans-6e" transform="translate(232.177734 0)"/>
     <use xlink:href="#DejaVuSans-69" transform="translate(295.556641 0)"/>
     <use xlink:href="#DejaVuSans-6f" transform="translate(323.339844 0)"/>
    </g>
   </g>
   <g id="text_11">
    <!-- Antonio -->
    <g transform="translate(315.93282 177.758547) scale(0.144 -0.144)">
     <use xlink:href="#DejaVuSans-41"/>
     <use xlink:href="#DejaVuSans-6e" transform="translate(68.408203 0)"/>
     <use xlink:href="#DejaVuSans-74" transform="translate(131.787109 0)"/>
     <use xlink:href="#DejaVuSans-6f" transform="translate(170.996094 0)"/>
     <use xlink:href="#DejaVuSans-6e" transform="translate(232.177734 0)"/>
     <use xlink:href="#DejaVuSans-69" transform="translate(295.556641 0)"/>
     <use xlink:href="#DejaVuSans-6f" transform="translate(323.339844 0)"/>
    </g>
   </g>
   <g id="text_12">
    <!-- Francisco -->
    <g transform="translate(161.11832 218.411867) scale(0.144 -0.144)">
     <defs>
      <path id="DejaVuSans-46" d="M 628 4666 
L 3309 4666 
L 3309 4134 
L 1259 4134 
L 1259 2759 
L 3109 2759 
L 3109 2228 
L 1259 2228 
L 1259 0 
L 628 0 
L 628 4666 
z
" transform="scale(0.015625)"/>
      <path id="DejaVuSans-72" d="M 2631 2963 
Q 2534 3019 2420 3045 
Q 2306 3072 2169 3072 
Q 1681 3072 1420 2755 
Q 1159 2438 1159 1844 
L 1159 0 
L 581 0 
L 581 3500 
L 1159 3500 
L 1159 2956 
Q 1341 3275 1631 3429 
Q 1922 3584 2338 3584 
Q 2397 3584 2469 3576 
Q 2541 3569 2628 3553 
L 2631 2963 
z
" transform="scale(0.015625)"/>
      <path id="DejaVuSans-73" d="M 2834 3397 
L 2834 2853 
Q 2591 2978 2328 3040 
Q 2066 3103 1784 3103 
Q 1356 3103 1142 2972 
Q 928 2841 928 2578 
Q 928 2378 1081 2264 
Q 1234 2150 1697 2047 
L 1894 2003 
Q 2506 1872 2764 1633 
Q 3022 1394 3022 966 
Q 3022 478 2636 193 
Q 2250 -91 1575 -91 
Q 1294 -91 989 -36 
Q 684 19 347 128 
L 347 722 
Q 666 556 975 473 
Q 1284 391 1588 391 
Q 1994 391 2212 530 
Q 2431 669 2431 922 
Q 2431 1156 2273 1281 
Q 2116 1406 1581 1522 
L 1381 1569 
Q 847 1681 609 1914 
Q 372 2147 372 2553 
Q 372 3047 722 3315 
Q 1072 3584 1716 3584 
Q 2034 3584 2315 3537 
Q 2597 3491 2834 3397 
z
" transform="scale(0.015625)"/>
     </defs>
     <use xlink:href="#DejaVuSans-46"/>
     <use xlink:href="#DejaVuSans-72" transform="translate(50.269531 0)"/>
     <use xlink:href="#DejaVuSans-61" transform="translate(91.382812 0)"/>
     <use xlink:href="#DejaVuSans-6e" transform="translate(152.662109 0)"/>
     <use xlink:href="#DejaVuSans-63" transform="translate(216.041016 0)"/>
     <use xlink:href="#DejaVuSans-69" transform="translate(271.021484 0)"/>
     <use xlink:href="#DejaVuSans-73" transform="translate(298.804688 0)"/>
     <use xlink:href="#DejaVuSans-63" transform="translate(350.904297 0)"/>
     <use xlink:href="#DejaVuSans-6f" transform="translate(405.884766 0)"/>
    </g>
   </g>
   <g id="text_13">
    <!-- Francisco -->
    <g transform="translate(390.150812 162.658742) scale(0.144 -0.144)">
     <use xlink:href="#DejaVuSans-46"/>
     <use xlink:href="#DejaVuSans-72" transform="translate(50.269531 0)"/>
     <use xlink:href="#DejaVuSans-61" transform="translate(91.382812 0)"/>
     <use xlink:href="#DejaVuSans-6e" transform="translate(152.662109 0)"/>
     <use xlink:href="#DejaVuSans-63" transform="translate(216.041016 0)"/>
     <use xlink:href="#DejaVuSans-69" transform="translate(271.021484 0)"/>
     <use xlink:href="#DejaVuSans-73" transform="translate(298.804688 0)"/>
     <use xlink:href="#DejaVuSans-63" transform="translate(350.904297 0)"/>
     <use xlink:href="#DejaVuSans-6f" transform="translate(405.884766 0)"/>
    </g>
   </g>
   <g id="text_14">
    <g id="patch_9">
     <path d="M 76.451538 79.340875 
L 452.199287 79.340875 
Q 459.399288 79.340875 459.399288 72.140875 
L 459.399288 25.951975 
Q 459.399288 18.751975 452.199287 18.751975 
L 76.451538 18.751975 
Q 69.251537 18.751975 69.251537 25.951975 
L 69.251537 72.140875 
Q 69.251537 79.340875 76.451538 79.340875 
z
" style="fill: #7f3517; opacity: 0.3; stroke: #000000; stroke-linejoin: miter"/>
    </g>
    <!-- 'I visited San Antonio and saw the Alamo, and San -->
    <g transform="translate(76.451538 36.864475) scale(0.144 -0.144)">
     <defs>
      <path id="DejaVuSans-27" d="M 1147 4666 
L 1147 2931 
L 616 2931 
L 616 4666 
L 1147 4666 
z
" transform="scale(0.015625)"/>
      <path id="DejaVuSans-49" d="M 628 4666 
L 1259 4666 
L 1259 0 
L 628 0 
L 628 4666 
z
" transform="scale(0.015625)"/>
      <path id="DejaVuSans-77" d="M 269 3500 
L 844 3500 
L 1563 769 
L 2278 3500 
L 2956 3500 
L 3675 769 
L 4391 3500 
L 4966 3500 
L 4050 0 
L 3372 0 
L 2619 2869 
L 1863 0 
L 1184 0 
L 269 3500 
z
" transform="scale(0.015625)"/>
      <path id="DejaVuSans-68" d="M 3513 2113 
L 3513 0 
L 2938 0 
L 2938 2094 
Q 2938 2591 2744 2837 
Q 2550 3084 2163 3084 
Q 1697 3084 1428 2787 
Q 1159 2491 1159 1978 
L 1159 0 
L 581 0 
L 581 4863 
L 1159 4863 
L 1159 2956 
Q 1366 3272 1645 3428 
Q 1925 3584 2291 3584 
Q 2894 3584 3203 3211 
Q 3513 2838 3513 2113 
z
" transform="scale(0.015625)"/>
      <path id="DejaVuSans-6c" d="M 603 4863 
L 1178 4863 
L 1178 0 
L 603 0 
L 603 4863 
z
" transform="scale(0.015625)"/>
      <path id="DejaVuSans-6d" d="M 3328 2828 
Q 3544 3216 3844 3400 
Q 4144 3584 4550 3584 
Q 5097 3584 5394 3201 
Q 5691 2819 5691 2113 
L 5691 0 
L 5113 0 
L 5113 2094 
Q 5113 2597 4934 2840 
Q 4756 3084 4391 3084 
Q 3944 3084 3684 2787 
Q 3425 2491 3425 1978 
L 3425 0 
L 2847 0 
L 2847 2094 
Q 2847 2600 2669 2842 
Q 2491 3084 2119 3084 
Q 1678 3084 1418 2786 
Q 1159 2488 1159 1978 
L 1159 0 
L 581 0 
L 581 3500 
L 1159 3500 
L 1159 2956 
Q 1356 3278 1631 3431 
Q 1906 3584 2284 3584 
Q 2666 3584 2933 3390 
Q 3200 3197 3328 2828 
z
" transform="scale(0.015625)"/>
     </defs>
     <use xlink:href="#DejaVuSans-27"/>
     <use xlink:href="#DejaVuSans-49" transform="translate(27.490234 0)"/>
     <use xlink:href="#DejaVuSans-20" transform="translate(56.982422 0)"/>
     <use xlink:href="#DejaVuSans-76" transform="translate(88.769531 0)"/>
     <use xlink:href="#DejaVuSans-69" transform="translate(147.949219 0)"/>
     <use xlink:href="#DejaVuSans-73" transform="translate(175.732422 0)"/>
     <use xlink:href="#DejaVuSans-69" transform="translate(227.832031 0)"/>
     <use xlink:href="#DejaVuSans-74" transform="translate(255.615234 0)"/>
     <use xlink:href="#DejaVuSans-65" transform="translate(294.824219 0)"/>
     <use xlink:href="#DejaVuSans-64" transform="translate(356.347656 0)"/>
     <use xlink:href="#DejaVuSans-20" transform="translate(419.824219 0)"/>
     <use xlink:href="#DejaVuSans-53" transform="translate(451.611328 0)"/>
     <use xlink:href="#DejaVuSans-61" transform="translate(515.087891 0)"/>
     <use xlink:href="#DejaVuSans-6e" transform="translate(576.367188 0)"/>
     <use xlink:href="#DejaVuSans-20" transform="translate(639.746094 0)"/>
     <use xlink:href="#DejaVuSans-41" transform="translate(671.533203 0)"/>
     <use xlink:href="#DejaVuSans-6e" transform="translate(739.941406 0)"/>
     <use xlink:href="#DejaVuSans-74" transform="translate(803.320312 0)"/>
     <use xlink:href="#DejaVuSans-6f" transform="translate(842.529297 0)"/>
     <use xlink:href="#DejaVuSans-6e" transform="translate(903.710938 0)"/>
     <use xlink:href="#DejaVuSans-69" transform="translate(967.089844 0)"/>
     <use xlink:href="#DejaVuSans-6f" transform="translate(994.873047 0)"/>
     <use xlink:href="#DejaVuSans-20" transform="translate(1056.054688 0)"/>
     <use xlink:href="#DejaVuSans-61" transform="translate(1087.841797 0)"/>
     <use xlink:href="#DejaVuSans-6e" transform="translate(1149.121094 0)"/>
     <use xlink:href="#DejaVuSans-64" transform="translate(1212.5 0)"/>
     <use xlink:href="#DejaVuSans-20" transform="translate(1275.976562 0)"/>
     <use xlink:href="#DejaVuSans-73" transform="translate(1307.763672 0)"/>
     <use xlink:href="#DejaVuSans-61" transform="translate(1359.863281 0)"/>
     <use xlink:href="#DejaVuSans-77" transform="translate(1421.142578 0)"/>
     <use xlink:href="#DejaVuSans-20" transform="translate(1502.929688 0)"/>
     <use xlink:href="#DejaVuSans-74" transform="translate(1534.716797 0)"/>
     <use xlink:href="#DejaVuSans-68" transform="translate(1573.925781 0)"/>
     <use xlink:href="#DejaVuSans-65" transform="translate(1637.304688 0)"/>
     <use xlink:href="#DejaVuSans-20" transform="translate(1698.828125 0)"/>
     <use xlink:href="#DejaVuSans-41" transform="translate(1730.615234 0)"/>
     <use xlink:href="#DejaVuSans-6c" transform="translate(1799.023438 0)"/>
     <use xlink:href="#DejaVuSans-61" transform="translate(1826.806641 0)"/>
     <use xlink:href="#DejaVuSans-6d" transform="translate(1888.085938 0)"/>
     <use xlink:href="#DejaVuSans-6f" transform="translate(1985.498047 0)"/>
     <use xlink:href="#DejaVuSans-2c" transform="translate(2046.679688 0)"/>
     <use xlink:href="#DejaVuSans-20" transform="translate(2078.466797 0)"/>
     <use xlink:href="#DejaVuSans-61" transform="translate(2110.253906 0)"/>
     <use xlink:href="#DejaVuSans-6e" transform="translate(2171.533203 0)"/>
     <use xlink:href="#DejaVuSans-64" transform="translate(2234.912109 0)"/>
     <use xlink:href="#DejaVuSans-20" transform="translate(2298.388672 0)"/>
     <use xlink:href="#DejaVuSans-53" transform="translate(2330.175781 0)"/>
     <use xlink:href="#DejaVuSans-61" transform="translate(2393.652344 0)"/>
     <use xlink:href="#DejaVuSans-6e" transform="translate(2454.931641 0)"/>
    </g>
    <!-- Francisco where I saw the Golden Gate Bridge. After -->
    <g transform="translate(76.451538 52.989325) scale(0.144 -0.144)">
     <defs>
      <path id="DejaVuSans-47" d="M 3809 666 
L 3809 1919 
L 2778 1919 
L 2778 2438 
L 4434 2438 
L 4434 434 
Q 4069 175 3628 42 
Q 3188 -91 2688 -91 
Q 1594 -91 976 548 
Q 359 1188 359 2328 
Q 359 3472 976 4111 
Q 1594 4750 2688 4750 
Q 3144 4750 3555 4637 
Q 3966 4525 4313 4306 
L 4313 3634 
Q 3963 3931 3569 4081 
Q 3175 4231 2741 4231 
Q 1884 4231 1454 3753 
Q 1025 3275 1025 2328 
Q 1025 1384 1454 906 
Q 1884 428 2741 428 
Q 3075 428 3337 486 
Q 3600 544 3809 666 
z
" transform="scale(0.015625)"/>
      <path id="DejaVuSans-42" d="M 1259 2228 
L 1259 519 
L 2272 519 
Q 2781 519 3026 730 
Q 3272 941 3272 1375 
Q 3272 1813 3026 2020 
Q 2781 2228 2272 2228 
L 1259 2228 
z
M 1259 4147 
L 1259 2741 
L 2194 2741 
Q 2656 2741 2882 2914 
Q 3109 3088 3109 3444 
Q 3109 3797 2882 3972 
Q 2656 4147 2194 4147 
L 1259 4147 
z
M 628 4666 
L 2241 4666 
Q 2963 4666 3353 4366 
Q 3744 4066 3744 3513 
Q 3744 3084 3544 2831 
Q 3344 2578 2956 2516 
Q 3422 2416 3680 2098 
Q 3938 1781 3938 1306 
Q 3938 681 3513 340 
Q 3088 0 2303 0 
L 628 0 
L 628 4666 
z
" transform="scale(0.015625)"/>
      <path id="DejaVuSans-67" d="M 2906 1791 
Q 2906 2416 2648 2759 
Q 2391 3103 1925 3103 
Q 1463 3103 1205 2759 
Q 947 2416 947 1791 
Q 947 1169 1205 825 
Q 1463 481 1925 481 
Q 2391 481 2648 825 
Q 2906 1169 2906 1791 
z
M 3481 434 
Q 3481 -459 3084 -895 
Q 2688 -1331 1869 -1331 
Q 1566 -1331 1297 -1286 
Q 1028 -1241 775 -1147 
L 775 -588 
Q 1028 -725 1275 -790 
Q 1522 -856 1778 -856 
Q 2344 -856 2625 -561 
Q 2906 -266 2906 331 
L 2906 616 
Q 2728 306 2450 153 
Q 2172 0 1784 0 
Q 1141 0 747 490 
Q 353 981 353 1791 
Q 353 2603 747 3093 
Q 1141 3584 1784 3584 
Q 2172 3584 2450 3431 
Q 2728 3278 2906 2969 
L 2906 3500 
L 3481 3500 
L 3481 434 
z
" transform="scale(0.015625)"/>
      <path id="DejaVuSans-66" d="M 2375 4863 
L 2375 4384 
L 1825 4384 
Q 1516 4384 1395 4259 
Q 1275 4134 1275 3809 
L 1275 3500 
L 2222 3500 
L 2222 3053 
L 1275 3053 
L 1275 0 
L 697 0 
L 697 3053 
L 147 3053 
L 147 3500 
L 697 3500 
L 697 3744 
Q 697 4328 969 4595 
Q 1241 4863 1831 4863 
L 2375 4863 
z
" transform="scale(0.015625)"/>
     </defs>
     <use xlink:href="#DejaVuSans-46"/>
     <use xlink:href="#DejaVuSans-72" transform="translate(50.269531 0)"/>
     <use xlink:href="#DejaVuSans-61" transform="translate(91.382812 0)"/>
     <use xlink:href="#DejaVuSans-6e" transform="translate(152.662109 0)"/>
     <use xlink:href="#DejaVuSans-63" transform="translate(216.041016 0)"/>
     <use xlink:href="#DejaVuSans-69" transform="translate(271.021484 0)"/>
     <use xlink:href="#DejaVuSans-73" transform="translate(298.804688 0)"/>
     <use xlink:href="#DejaVuSans-63" transform="translate(350.904297 0)"/>
     <use xlink:href="#DejaVuSans-6f" transform="translate(405.884766 0)"/>
     <use xlink:href="#DejaVuSans-20" transform="translate(467.066406 0)"/>
     <use xlink:href="#DejaVuSans-77" transform="translate(498.853516 0)"/>
     <use xlink:href="#DejaVuSans-68" transform="translate(580.640625 0)"/>
     <use xlink:href="#DejaVuSans-65" transform="translate(644.019531 0)"/>
     <use xlink:href="#DejaVuSans-72" transform="translate(705.542969 0)"/>
     <use xlink:href="#DejaVuSans-65" transform="translate(744.40625 0)"/>
     <use xlink:href="#DejaVuSans-20" transform="translate(805.929688 0)"/>
     <use xlink:href="#DejaVuSans-49" transform="translate(837.716797 0)"/>
     <use xlink:href="#DejaVuSans-20" transform="translate(867.208984 0)"/>
     <use xlink:href="#DejaVuSans-73" transform="translate(898.996094 0)"/>
     <use xlink:href="#DejaVuSans-61" transform="translate(951.095703 0)"/>
     <use xlink:href="#DejaVuSans-77" transform="translate(1012.375 0)"/>
     <use xlink:href="#DejaVuSans-20" transform="translate(1094.162109 0)"/>
     <use xlink:href="#DejaVuSans-74" transform="translate(1125.949219 0)"/>
     <use xlink:href="#DejaVuSans-68" transform="translate(1165.158203 0)"/>
     <use xlink:href="#DejaVuSans-65" transform="translate(1228.537109 0)"/>
     <use xlink:href="#DejaVuSans-20" transform="translate(1290.060547 0)"/>
     <use xlink:href="#DejaVuSans-47" transform="translate(1321.847656 0)"/>
     <use xlink:href="#DejaVuSans-6f" transform="translate(1399.337891 0)"/>
     <use xlink:href="#DejaVuSans-6c" transform="translate(1460.519531 0)"/>
     <use xlink:href="#DejaVuSans-64" transform="translate(1488.302734 0)"/>
     <use xlink:href="#DejaVuSans-65" transform="translate(1551.779297 0)"/>
     <use xlink:href="#DejaVuSans-6e" transform="translate(1613.302734 0)"/>
     <use xlink:href="#DejaVuSans-20" transform="translate(1676.681641 0)"/>
     <use xlink:href="#DejaVuSans-47" transform="translate(1708.46875 0)"/>
     <use xlink:href="#DejaVuSans-61" transform="translate(1785.958984 0)"/>
     <use xlink:href="#DejaVuSans-74" transform="translate(1847.238281 0)"/>
     <use xlink:href="#DejaVuSans-65" transform="translate(1886.447266 0)"/>
     <use xlink:href="#DejaVuSans-20" transform="translate(1947.970703 0)"/>
     <use xlink:href="#DejaVuSans-42" transform="translate(1979.757812 0)"/>
     <use xlink:href="#DejaVuSans-72" transform="translate(2048.361328 0)"/>
     <use xlink:href="#DejaVuSans-69" transform="translate(2089.474609 0)"/>
     <use xlink:href="#DejaVuSans-64" transform="translate(2117.257812 0)"/>
     <use xlink:href="#DejaVuSans-67" transform="translate(2180.734375 0)"/>
     <use xlink:href="#DejaVuSans-65" transform="translate(2244.210938 0)"/>
     <use xlink:href="#DejaVuSans-2e" transform="translate(2305.734375 0)"/>
     <use xlink:href="#DejaVuSans-20" transform="translate(2337.521484 0)"/>
     <use xlink:href="#DejaVuSans-41" transform="translate(2369.308594 0)"/>
     <use xlink:href="#DejaVuSans-66" transform="translate(2434.091797 0)"/>
     <use xlink:href="#DejaVuSans-74" transform="translate(2467.546875 0)"/>
     <use xlink:href="#DejaVuSans-65" transform="translate(2506.755859 0)"/>
     <use xlink:href="#DejaVuSans-72" transform="translate(2568.279297 0)"/>
    </g>
    <!-- seeing the Alamo I realized how much I liked $\boldsymbol{San}$' -->
    <g transform="translate(76.451538 69.116875) scale(0.144 -0.144)">
     <defs>
      <path id="DejaVuSans-7a" d="M 353 3500 
L 3084 3500 
L 3084 2975 
L 922 459 
L 3084 459 
L 3084 0 
L 275 0 
L 275 525 
L 2438 3041 
L 353 3041 
L 353 3500 
z
" transform="scale(0.015625)"/>
      <path id="DejaVuSans-75" d="M 544 1381 
L 544 3500 
L 1119 3500 
L 1119 1403 
Q 1119 906 1312 657 
Q 1506 409 1894 409 
Q 2359 409 2629 706 
Q 2900 1003 2900 1516 
L 2900 3500 
L 3475 3500 
L 3475 0 
L 2900 0 
L 2900 538 
Q 2691 219 2414 64 
Q 2138 -91 1772 -91 
Q 1169 -91 856 284 
Q 544 659 544 1381 
z
M 1991 3584 
L 1991 3584 
z
" transform="scale(0.015625)"/>
      <path id="DejaVuSans-6b" d="M 581 4863 
L 1159 4863 
L 1159 1991 
L 2875 3500 
L 3609 3500 
L 1753 1863 
L 3688 0 
L 2938 0 
L 1159 1709 
L 1159 0 
L 581 0 
L 581 4863 
z
" transform="scale(0.015625)"/>
      <path id="STIXGeneral-BoldItalic-53" d="M 3366 4358 
L 3110 3066 
L 2938 3091 
Q 2880 3578 2797 3738 
Q 2586 4160 2054 4160 
Q 1792 4160 1609 3974 
Q 1427 3789 1427 3488 
Q 1427 3226 1571 3062 
Q 1715 2899 2112 2611 
Q 2624 2240 2809 1945 
Q 2995 1651 2995 1222 
Q 2995 819 2809 515 
Q 2624 211 2291 45 
Q 1958 -115 1523 -115 
Q 1184 -115 742 38 
Q 538 109 448 109 
Q 358 109 310 67 
Q 262 26 205 -115 
L 13 -115 
L 243 1325 
L 429 1312 
Q 474 966 531 774 
Q 589 582 736 422 
Q 1018 102 1414 102 
Q 1773 102 1984 320 
Q 2221 557 2221 909 
Q 2221 1184 2057 1392 
Q 1894 1600 1485 1894 
Q 1062 2195 857 2486 
Q 653 2778 653 3162 
Q 653 3699 1027 4041 
Q 1402 4384 1958 4384 
Q 2278 4384 2544 4288 
Q 2810 4192 2893 4192 
Q 3091 4192 3174 4358 
L 3366 4358 
z
" transform="scale(0.015625)"/>
      <path id="STIXGeneral-BoldItalic-61" d="M 2784 813 
L 2918 717 
Q 2419 -90 1920 -90 
Q 1734 -90 1625 16 
Q 1517 122 1517 320 
Q 1517 454 1606 762 
Q 1338 307 1094 112 
Q 851 -83 557 -83 
Q 243 -83 54 141 
Q -134 365 -134 730 
Q -134 1478 422 2208 
Q 992 2957 1613 2957 
Q 1818 2957 1930 2848 
Q 2042 2739 2086 2496 
L 2093 2496 
L 2202 2874 
L 2912 2918 
L 2432 1312 
Q 2240 678 2240 461 
Q 2240 365 2317 365 
Q 2394 365 2490 457 
Q 2586 550 2784 813 
z
M 1939 2387 
Q 1939 2515 1872 2601 
Q 1805 2688 1702 2688 
Q 1370 2688 1011 1952 
Q 851 1626 752 1277 
Q 653 928 653 736 
Q 653 371 928 371 
Q 1216 371 1478 851 
Q 1664 1184 1801 1641 
Q 1939 2099 1939 2387 
z
" transform="scale(0.015625)"/>
      <path id="STIXGeneral-BoldItalic-6e" d="M 3021 864 
L 3162 781 
Q 2899 320 2665 131 
Q 2432 -58 2138 -58 
Q 1702 -58 1702 326 
Q 1702 627 1869 1126 
L 2221 2182 
Q 2266 2330 2266 2362 
Q 2266 2496 2106 2496 
Q 2022 2496 1894 2390 
Q 1766 2285 1664 2150 
Q 1363 1754 1158 1286 
Q 954 819 736 0 
L -38 0 
L 326 1306 
Q 614 2355 614 2451 
Q 614 2541 540 2569 
Q 467 2598 262 2605 
L 262 2778 
Q 838 2797 1536 2950 
L 1139 1683 
L 1146 1683 
Q 1472 2163 1613 2345 
Q 1754 2528 1926 2694 
Q 2202 2957 2566 2957 
Q 3034 2957 3034 2464 
Q 3034 2246 2854 1722 
L 2630 1056 
Q 2477 602 2477 486 
Q 2477 378 2566 378 
Q 2650 378 2739 474 
Q 2829 570 3021 864 
z
" transform="scale(0.015625)"/>
     </defs>
     <use xlink:href="#DejaVuSans-73" transform="translate(0 0.015625)"/>
     <use xlink:href="#DejaVuSans-65" transform="translate(52.099609 0.015625)"/>
     <use xlink:href="#DejaVuSans-65" transform="translate(113.623047 0.015625)"/>
     <use xlink:href="#DejaVuSans-69" transform="translate(175.146484 0.015625)"/>
     <use xlink:href="#DejaVuSans-6e" transform="translate(202.929688 0.015625)"/>
     <use xlink:href="#DejaVuSans-67" transform="translate(266.308594 0.015625)"/>
     <use xlink:href="#DejaVuSans-20" transform="translate(329.785156 0.015625)"/>
     <use xlink:href="#DejaVuSans-74" transform="translate(361.572266 0.015625)"/>
     <use xlink:href="#DejaVuSans-68" transform="translate(400.78125 0.015625)"/>
     <use xlink:href="#DejaVuSans-65" transform="translate(464.160156 0.015625)"/>
     <use xlink:href="#DejaVuSans-20" transform="translate(525.683594 0.015625)"/>
     <use xlink:href="#DejaVuSans-41" transform="translate(557.470703 0.015625)"/>
     <use xlink:href="#DejaVuSans-6c" transform="translate(625.878906 0.015625)"/>
     <use xlink:href="#DejaVuSans-61" transform="translate(653.662109 0.015625)"/>
     <use xlink:href="#DejaVuSans-6d" transform="translate(714.941406 0.015625)"/>
     <use xlink:href="#DejaVuSans-6f" transform="translate(812.353516 0.015625)"/>
     <use xlink:href="#DejaVuSans-20" transform="translate(873.535156 0.015625)"/>
     <use xlink:href="#DejaVuSans-49" transform="translate(905.322266 0.015625)"/>
     <use xlink:href="#DejaVuSans-20" transform="translate(934.814453 0.015625)"/>
     <use xlink:href="#DejaVuSans-72" transform="translate(966.601562 0.015625)"/>
     <use xlink:href="#DejaVuSans-65" transform="translate(1007.714844 0.015625)"/>
     <use xlink:href="#DejaVuSans-61" transform="translate(1069.238281 0.015625)"/>
     <use xlink:href="#DejaVuSans-6c" transform="translate(1130.517578 0.015625)"/>
     <use xlink:href="#DejaVuSans-69" transform="translate(1158.300781 0.015625)"/>
     <use xlink:href="#DejaVuSans-7a" transform="translate(1186.083984 0.015625)"/>
     <use xlink:href="#DejaVuSans-65" transform="translate(1238.574219 0.015625)"/>
     <use xlink:href="#DejaVuSans-64" transform="translate(1300.097656 0.015625)"/>
     <use xlink:href="#DejaVuSans-20" transform="translate(1363.574219 0.015625)"/>
     <use xlink:href="#DejaVuSans-68" transform="translate(1395.361328 0.015625)"/>
     <use xlink:href="#DejaVuSans-6f" transform="translate(1458.740234 0.015625)"/>
     <use xlink:href="#DejaVuSans-77" transform="translate(1519.921875 0.015625)"/>
     <use xlink:href="#DejaVuSans-20" transform="translate(1601.708984 0.015625)"/>
     <use xlink:href="#DejaVuSans-6d" transform="translate(1633.496094 0.015625)"/>
     <use xlink:href="#DejaVuSans-75" transform="translate(1730.908203 0.015625)"/>
     <use xlink:href="#DejaVuSans-63" transform="translate(1794.287109 0.015625)"/>
     <use xlink:href="#DejaVuSans-68" transform="translate(1849.267578 0.015625)"/>
     <use xlink:href="#DejaVuSans-20" transform="translate(1912.646484 0.015625)"/>
     <use xlink:href="#DejaVuSans-49" transform="translate(1944.433594 0.015625)"/>
     <use xlink:href="#DejaVuSans-20" transform="translate(1973.925781 0.015625)"/>
     <use xlink:href="#DejaVuSans-6c" transform="translate(2005.712891 0.015625)"/>
     <use xlink:href="#DejaVuSans-69" transform="translate(2033.496094 0.015625)"/>
     <use xlink:href="#DejaVuSans-6b" transform="translate(2061.279297 0.015625)"/>
     <use xlink:href="#DejaVuSans-65" transform="translate(2119.189453 0.015625)"/>
     <use xlink:href="#DejaVuSans-64" transform="translate(2180.712891 0.015625)"/>
     <use xlink:href="#DejaVuSans-20" transform="translate(2244.189453 0.015625)"/>
     <use xlink:href="#STIXGeneral-BoldItalic-53" transform="translate(2275.976562 0.015625)"/>
     <use xlink:href="#STIXGeneral-BoldItalic-61" transform="translate(2331.576553 0.015625)"/>
     <use xlink:href="#STIXGeneral-BoldItalic-6e" transform="translate(2381.576538 0.015625)"/>
     <use xlink:href="#DejaVuSans-27" transform="translate(2437.176529 0.015625)"/>
    </g>
   </g>
  </g>
 </g>
 <defs>
  <clipPath id="p2182c0a51a">
   <rect x="55.037" y="12.670875" width="428.29075" height="297.35"/>
  </clipPath>
 </defs>
</svg>
